<?xml version="1.0" encoding="UTF-8" standalone="no"?>
<!-- Created with Inkscape (http://www.inkscape.org/) -->

<svg
   version="1.1"
   id="svg2"
   width="1557.3333"
   height="250.66667"
   viewBox="0 0 1557.3333 250.66667"
   sodipodi:docname="AvilaUnv_1Line_2627_noTag.ai"
   xmlns:inkscape="http://www.inkscape.org/namespaces/inkscape"
   xmlns:sodipodi="http://sodipodi.sourceforge.net/DTD/sodipodi-0.dtd"
   xmlns="http://www.w3.org/2000/svg"
   xmlns:svg="http://www.w3.org/2000/svg">
  <defs
     id="defs6">
    <clipPath
       clipPathUnits="userSpaceOnUse"
       id="clipPath16">
      <path
         d="M 0,188 H 1168 V 0 H 0 Z"
         id="path14" />
    </clipPath>
  </defs>
  <sodipodi:namedview
     id="namedview4"
     pagecolor="#ffffff"
     bordercolor="#000000"
     borderopacity="0.25"
     inkscape:showpageshadow="2"
     inkscape:pageopacity="0.0"
     inkscape:pagecheckerboard="0"
     inkscape:deskcolor="#d1d1d1" />
  <g
     id="g8"
     inkscape:groupmode="layer"
     inkscape:label="AvilaUnv_1Line_2627_noTag"
     transform="matrix(1.3333333,0,0,-1.3333333,0,250.66667)">
    <g
       id="g10">
      <g
         id="g12"
         clip-path="url(#clipPath16)">
        <g
           id="g18"
           transform="translate(210.7881,89.103)">
          <path
             d="M 0,0 -12.157,29.384 -24.324,0 Z m 0.946,-2.296 h -26.214 l -1.813,-4.367 c -2.643,-6.336 -3.964,-10.477 -3.964,-12.404 0,-2.072 0.702,-3.634 2.109,-4.704 1.407,-1.068 3.211,-1.601 5.415,-1.601 v -2.338 h -20.491 v 2.338 c 3.052,0.47 5.323,1.543 6.813,3.224 1.492,1.673 3.29,5.202 5.389,10.579 0.206,0.514 1.029,2.483 2.467,5.917 l 20.034,47.848 h 1.96 l 23.079,-54.757 3.158,-7.221 c 0.708,-1.626 1.664,-2.906 2.854,-3.834 1.197,-0.937 2.989,-1.515 5.38,-1.756 V -27.71 H 0.073 v 2.338 c 3.323,0 5.568,0.248 6.737,0.733 1.168,0.495 1.753,1.474 1.753,2.925 0,0.75 -0.782,2.967 -2.338,6.664 z"
             style="fill:#49176d;fill-opacity:1;fill-rule:nonzero;stroke:none"
             id="path20" />
        </g>
        <g
           id="g22"
           transform="translate(263.1279,59.7134)">
          <path
             d="M 0,0 H -3.091 L -26.85,54.89 c -0.441,0.971 -1.133,2.669 -2.084,5.068 -1.317,3.254 -2.705,5.435 -4.16,6.554 -1.458,1.112 -3.807,1.704 -7.056,1.774 v 2.342 h 29.643 v -2.342 c -3.709,0 -6.199,-0.27 -7.47,-0.817 -1.273,-0.539 -1.911,-1.575 -1.911,-3.099 0,-0.985 0.797,-3.287 2.391,-6.914 L 2.334,11.652 18.248,49.77 c 2.675,6.38 4.015,10.528 4.015,12.464 0,3.898 -2.754,5.916 -8.261,6.052 v 2.342 h 20.999 v -2.342 c -2.134,-0.07 -4.014,-0.829 -5.644,-2.289 -1.626,-1.461 -3.032,-3.588 -4.216,-6.405 l -4.628,-10.83 z"
             style="fill:#49176d;fill-opacity:1;fill-rule:nonzero;stroke:none"
             id="path24" />
        </g>
        <g
           id="g26"
           transform="translate(301.1787,127.999)">
          <path
             d="M 0,0 V 2.342 H 31.523 V 0 H 30.05 c -3.392,0 -5.612,-0.283 -6.659,-0.835 -1.055,-0.566 -1.754,-1.609 -2.113,-3.132 -0.355,-1.524 -0.533,-5.151 -0.533,-10.882 v -33.816 c 0,-5.421 0.127,-8.972 0.384,-10.649 0.251,-1.673 0.931,-2.922 2.029,-3.737 1.103,-0.811 3.214,-1.217 6.333,-1.217 h 2.032 v -2.338 H 0 v 2.338 h 2.035 c 2.947,0 4.989,0.375 6.127,1.118 1.134,0.743 1.855,1.905 2.162,3.481 0.302,1.575 0.454,5.247 0.454,11.004 v 33.816 c 0,5.493 -0.152,9.029 -0.454,10.631 C 10.017,-2.629 9.34,-1.529 8.289,-0.919 7.237,-0.308 4.967,0 1.474,0 Z"
             style="fill:#49176d;fill-opacity:1;fill-rule:nonzero;stroke:none"
             id="path28" />
        </g>
        <g
           id="g30"
           transform="translate(397.377,81.6753)">
          <path
             d="m 0,0 -0.495,-20.282 h -58.536 v 2.338 h 2.033 c 2.95,0 4.995,0.375 6.129,1.118 1.134,0.743 1.864,1.905 2.185,3.48 0.325,1.575 0.483,5.247 0.483,11.005 v 33.816 c 0,5.492 -0.158,9.029 -0.483,10.631 -0.321,1.588 -0.997,2.688 -2.032,3.298 -1.036,0.612 -3.297,0.92 -6.787,0.92 h -1.528 v 2.342 h 33.15 v -2.342 h -3.049 c -3.391,0 -5.611,-0.283 -6.659,-0.836 -1.052,-0.565 -1.757,-1.608 -2.109,-3.131 -0.359,-1.524 -0.536,-5.151 -0.536,-10.882 V -4.624 c 0,-4.983 0.135,-8.105 0.406,-9.356 0.269,-1.255 1.007,-2.227 2.207,-2.929 1.204,-0.693 3.782,-1.035 7.743,-1.035 h 5.231 c 4.23,0 7.371,0.375 9.419,1.111 2.049,0.75 3.993,2.369 5.837,4.872 1.846,2.503 3.533,6.488 5.054,11.961 z"
             style="fill:#49176d;fill-opacity:1;fill-rule:nonzero;stroke:none"
             id="path32" />
        </g>
        <g
           id="g34"
           transform="translate(444.4727,89.103)">
          <path
             d="M 0,0 -12.154,29.384 -24.321,0 Z m 0.95,-2.296 h -26.218 l -1.81,-4.367 c -2.642,-6.336 -3.963,-10.477 -3.963,-12.404 0,-2.072 0.698,-3.634 2.108,-4.704 1.405,-1.068 3.208,-1.601 5.415,-1.601 v -2.338 h -20.491 v 2.338 c 3.053,0.47 5.321,1.543 6.813,3.224 1.493,1.673 3.287,5.202 5.389,10.579 0.206,0.514 1.03,2.483 2.465,5.917 l 20.033,47.848 h 1.963 l 23.079,-54.757 3.161,-7.221 c 0.705,-1.626 1.658,-2.906 2.852,-3.834 1.194,-0.937 2.985,-1.515 5.38,-1.756 V -27.71 H 0.073 v 2.338 c 3.325,0 5.568,0.248 6.739,0.733 1.167,0.495 1.753,1.474 1.753,2.925 0,0.75 -0.781,2.967 -2.336,6.664 z"
             style="fill:#49176d;fill-opacity:1;fill-rule:nonzero;stroke:none"
             id="path36" />
        </g>
        <g
           id="g38"
           transform="translate(551.6543,130.4492)">
          <path
             d="m 0,0 h 23.048 v -2.341 c -3.056,-0.204 -5.329,-0.894 -6.841,-2.071 -1.512,-1.17 -2.439,-2.488 -2.779,-3.941 -0.334,-1.46 -0.505,-4.284 -0.505,-8.489 V -39.79 c 0,-5.866 -0.229,-10.223 -0.687,-13.082 -0.457,-2.848 -1.781,-5.646 -3.969,-8.39 -2.185,-2.747 -5.266,-4.936 -9.233,-6.568 -3.967,-1.62 -8.546,-2.439 -13.735,-2.439 -6.14,0 -11.335,1.042 -15.594,3.125 -4.256,2.093 -7.292,4.789 -9.112,8.093 -1.814,3.312 -2.715,7.742 -2.715,13.306 v 7.07 21.472 c 0,5.492 -0.166,9.036 -0.486,10.637 -0.325,1.589 -1.004,2.694 -2.033,3.306 -1.036,0.605 -3.303,0.919 -6.797,0.919 h -1.578 V 0 h 31.546 v -2.341 h -1.372 c -3.394,0 -5.614,-0.283 -6.666,-0.841 -1.054,-0.561 -1.756,-1.609 -2.108,-3.133 -0.36,-1.523 -0.54,-5.152 -0.54,-10.888 v -21.726 c 0,-7.53 0.349,-12.875 1.045,-16.026 0.695,-3.15 2.655,-5.91 5.879,-8.27 3.222,-2.353 7.51,-3.531 12.871,-3.531 4.205,0 8.029,0.794 11.471,2.362 3.444,1.576 6.003,3.542 7.683,5.901 1.684,2.364 2.706,4.781 3.078,7.273 0.371,2.503 0.559,6.428 0.559,11.783 v 23.508 c 0,3.903 -0.22,6.624 -0.661,8.186 C 9.331,-6.18 8.378,-4.938 6.927,-4.025 5.459,-3.106 3.156,-2.545 0,-2.341 Z"
             style="fill:#49176d;fill-opacity:1;fill-rule:nonzero;stroke:none"
             id="path40" />
        </g>
        <g
           id="g42"
           transform="translate(641.0977,59.8755)">
          <path
             d="M 0,0 -48.789,64.665 V 16.788 c 0,-3.974 0.191,-6.577 0.584,-7.839 0.389,-1.244 1.494,-2.397 3.328,-3.452 1.836,-1.051 4.58,-1.585 8.246,-1.585 V 1.575 h -25.744 v 2.337 c 3.29,0.242 5.799,0.846 7.53,1.811 1.728,0.965 2.753,2.013 3.08,3.125 0.322,1.125 0.476,3.766 0.476,7.94 v 36.583 c 0,5.293 -0.244,8.829 -0.732,10.636 -0.497,1.795 -1.274,2.946 -2.341,3.461 -1.071,0.508 -3.452,0.765 -7.146,0.765 v 2.341 H -41.16 L -0.305,16.585 v 41.263 c 0,3.053 -0.312,5.189 -0.941,6.41 -0.621,1.223 -1.904,2.187 -3.842,2.902 -1.932,0.713 -4.262,1.073 -6.969,1.073 v 2.341 H 12.971 V 68.233 C 10.061,67.995 7.756,67.436 6.084,66.548 4.402,65.667 3.328,64.606 2.877,63.371 2.42,62.13 2.191,60.041 2.191,57.089 V 0 Z"
             style="fill:#49176d;fill-opacity:1;fill-rule:nonzero;stroke:none"
             id="path44" />
        </g>
        <g
           id="g46"
           transform="translate(657.9746,128.1084)">
          <path
             d="M 0,0 V 2.341 H 31.549 V 0 h -1.481 c -3.384,0 -5.601,-0.283 -6.662,-0.841 -1.049,-0.561 -1.76,-1.609 -2.109,-3.134 -0.356,-1.523 -0.539,-5.151 -0.539,-10.887 v -33.833 c 0,-5.425 0.138,-8.981 0.387,-10.665 0.261,-1.67 0.927,-2.922 2.033,-3.728 1.105,-0.826 3.22,-1.233 6.34,-1.233 h 2.031 v -2.337 H 0 v 2.337 h 2.045 c 2.947,0 4.986,0.382 6.123,1.128 1.137,0.746 1.861,1.909 2.166,3.478 0.305,1.582 0.457,5.256 0.457,11.02 v 33.833 c 0,5.491 -0.152,9.036 -0.457,10.636 -0.305,1.59 -0.984,2.695 -2.033,3.307 C 7.24,-0.314 4.973,0 1.48,0 Z"
             style="fill:#49176d;fill-opacity:1;fill-rule:nonzero;stroke:none"
             id="path48" />
        </g>
        <g
           id="g50"
           transform="translate(732.7422,59.7769)">
          <path
             d="m 0,0 h -3.08 l -23.783,54.923 c -0.432,0.972 -1.129,2.663 -2.071,5.074 -1.334,3.255 -2.718,5.429 -4.171,6.553 -1.469,1.119 -3.805,1.712 -7.059,1.782 v 2.34 H -10.5 v -2.34 c -3.709,0 -6.213,-0.276 -7.482,-0.816 -1.27,-0.553 -1.907,-1.582 -1.907,-3.107 0,-0.984 0.795,-3.287 2.383,-6.92 L 2.35,11.659 18.273,49.803 c 2.674,6.381 4.022,10.535 4.022,12.465 0,3.902 -2.764,5.922 -8.27,6.064 v 2.34 h 21.004 v -2.34 c -2.133,-0.07 -4.013,-0.835 -5.646,-2.296 -1.625,-1.46 -3.024,-3.596 -4.217,-6.411 L 20.535,48.787 Z"
             style="fill:#49176d;fill-opacity:1;fill-rule:nonzero;stroke:none"
             id="path52" />
        </g>
        <g
           id="g54"
           transform="translate(825.4336,82.9233)">
          <path
             d="M 0,0 H 2.439 L 0.941,-21.473 h -57.109 v 2.337 h 1.422 c 3.43,0 5.635,0.464 6.639,1.379 1.009,0.921 1.638,2.077 1.912,3.487 0.271,1.408 0.412,4.996 0.412,10.76 v 33.833 c 0,5.255 -0.147,8.707 -0.432,10.373 -0.293,1.666 -0.947,2.83 -1.982,3.5 -1.041,0.656 -3.221,0.989 -6.549,0.989 v 2.341 h 49.353 l 1.582,-17.203 h -2.337 c -1.098,4.81 -2.42,8.233 -3.995,10.251 -1.582,2.02 -3.455,3.287 -5.628,3.821 -2.172,0.52 -5.659,0.79 -10.487,0.79 h -9.558 V 16.232 h 7.347 c 3.373,0 5.725,0.283 7.071,0.862 1.345,0.578 2.216,1.447 2.648,2.623 0.426,1.164 0.635,3.448 0.635,6.843 h 2.344 V 2.956 h -2.344 c 0,3.83 -0.324,6.403 -0.965,7.7 -0.649,1.306 -1.588,2.156 -2.832,2.548 -1.24,0.392 -3.342,0.584 -6.303,0.584 h -7.601 V -2.541 c 0,-8.172 0.533,-12.986 1.574,-14.425 1.054,-1.439 3.875,-2.17 8.48,-2.17 h 5.139 c 3.619,0 6.6,0.471 8.943,1.392 2.33,0.921 4.561,2.836 6.682,5.735 C -2.889,-9.105 -1.219,-5.107 0,0"
             style="fill:#49176d;fill-opacity:1;fill-rule:nonzero;stroke:none"
             id="path56" />
        </g>
        <g
           id="g58"
           transform="translate(854.0312,97.0718)">
          <path
             d="m 0,0 c 2.533,0.063 5.164,0.16 7.875,0.295 2.719,0.142 5.076,0.515 7.076,1.126 2.002,0.612 3.621,1.506 4.865,2.67 1.233,1.17 2.211,2.707 2.922,4.611 0.713,1.89 1.069,4.232 1.069,7.016 0,4.849 -1.207,8.727 -3.641,11.647 -2.42,2.919 -7.705,4.38 -15.848,4.38 -1.252,0 -2.693,-0.065 -4.318,-0.2 z M 52.143,-35.621 H 33.574 c -3.289,2.306 -8.326,8.347 -15.109,18.115 -2.174,3.119 -4.428,6.117 -6.772,8.979 -2.338,2.874 -3.945,4.611 -4.828,5.24 -0.888,0.63 -2.254,0.94 -4.129,0.94 H 0 v -15.311 c 0,-5.425 0.127,-8.982 0.381,-10.665 0.248,-1.67 0.933,-2.922 2.025,-3.729 1.106,-0.825 3.215,-1.232 6.346,-1.232 h 3.303 v -2.337 h -33.024 v 2.337 h 2.25 c 2.94,0 4.985,0.382 6.129,1.128 1.131,0.746 1.848,1.909 2.152,3.477 0.305,1.582 0.465,5.256 0.465,11.021 v 33.833 c 0,5.491 -0.16,9.035 -0.465,10.636 -0.304,1.59 -0.984,2.695 -2.031,3.306 -1.049,0.606 -3.328,0.92 -6.816,0.92 h -1.176 v 2.34 l 9.879,0.502 c 6.574,0.31 11.801,0.457 15.67,0.457 6.574,0 11.922,-0.617 16.051,-1.826 4.121,-1.229 7.457,-3.228 9.998,-6.013 2.541,-2.773 3.816,-6.102 3.816,-9.961 0,-4.516 -1.664,-8.369 -4.992,-11.557 -3.322,-3.185 -8.213,-5.173 -14.654,-5.951 2.884,-1.387 7.533,-6.402 13.943,-15.053 5.227,-7.026 9.324,-11.624 12.316,-13.797 2.979,-2.166 6.51,-3.325 10.577,-3.462 z"
             style="fill:#49176d;fill-opacity:1;fill-rule:nonzero;stroke:none"
             id="path60" />
        </g>
        <g
           id="g62"
           transform="translate(910.2129,62.1685)">
          <path
             d="M 0,0 V 22.181 H 2.541 C 5.43,7.692 12.26,0.451 23.051,0.451 c 4.853,0 8.613,1.391 11.267,4.154 2.662,2.766 3.996,5.873 3.996,9.305 0,3.475 -1.175,6.374 -3.505,8.722 -2.352,2.311 -6.62,4.786 -12.832,7.434 -5.526,2.381 -9.7,4.452 -12.506,6.233 -2.826,1.782 -5.018,4.097 -6.594,6.946 -1.574,2.849 -2.369,5.885 -2.369,9.107 0,4.919 1.709,9.01 5.113,12.283 3.418,3.274 7.731,4.913 12.951,4.913 2.916,0 5.666,-0.475 8.239,-1.428 2.58,-0.944 5.228,-2.918 7.933,-5.904 1.563,1.872 2.451,3.899 2.649,6.065 h 2.242 V 50.21 h -2.242 c -1.289,5.242 -3.563,9.364 -6.84,12.379 -3.278,3.012 -7.065,4.509 -11.364,4.509 -4.109,0 -7.121,-1.105 -9.033,-3.326 C 8.225,61.548 7.273,59.11 7.273,56.48 c 0,-3.189 1.2,-5.884 3.608,-8.084 2.363,-2.245 6.656,-4.74 12.869,-7.519 5.945,-2.629 10.264,-4.745 12.963,-6.359 2.693,-1.616 4.853,-3.839 6.486,-6.691 1.619,-2.846 2.446,-6.141 2.446,-9.87 0,-5.904 -1.977,-10.703 -5.909,-14.4 C 35.805,-0.14 30.545,-1.988 23.959,-1.988 16.395,-1.988 10.086,0.914 5.037,6.707 3.918,5.119 3.086,2.884 2.541,0 Z"
             style="fill:#49176d;fill-opacity:1;fill-rule:nonzero;stroke:none"
             id="path64" />
        </g>
        <g
           id="g66"
           transform="translate(961.1543,128.1084)">
          <path
             d="M 0,0 V 2.341 H 31.551 V 0 H 30.07 c -3.392,0 -5.609,-0.283 -6.664,-0.841 -1.047,-0.561 -1.76,-1.609 -2.115,-3.134 -0.342,-1.523 -0.527,-5.151 -0.527,-10.887 v -33.833 c 0,-5.425 0.127,-8.981 0.375,-10.665 0.261,-1.67 0.933,-2.922 2.039,-3.728 1.105,-0.826 3.215,-1.233 6.34,-1.233 h 2.033 v -2.337 H 0 v 2.337 h 2.039 c 2.953,0 4.992,0.382 6.129,1.128 1.139,0.746 1.861,1.909 2.16,3.478 0.311,1.582 0.465,5.256 0.465,11.02 v 33.833 c 0,5.491 -0.154,9.036 -0.465,10.636 -0.299,1.59 -0.984,2.695 -2.033,3.307 C 7.248,-0.314 4.967,0 1.48,0 Z"
             style="fill:#49176d;fill-opacity:1;fill-rule:nonzero;stroke:none"
             id="path68" />
        </g>
        <g
           id="g70"
           transform="translate(1000.332,113.8564)">
          <path
             d="m 0,0 h -2.33 l 0.35,16.593 H 65.025 L 65.381,0 h -2.192 c -0.775,4.548 -1.849,7.827 -3.201,9.847 -1.359,2.02 -2.808,3.254 -4.371,3.717 -1.562,0.456 -4.222,0.688 -7.99,0.688 H 36.523 v -48.695 c 0,-5.392 0.141,-8.936 0.389,-10.633 0.26,-1.696 0.945,-2.954 2.065,-3.76 1.117,-0.826 3.218,-1.233 6.306,-1.233 h 3.36 v -2.337 H 14.197 v 2.337 h 3.557 c 2.953,0 5.006,0.382 6.137,1.128 1.136,0.746 1.861,1.909 2.183,3.478 0.324,1.582 0.49,5.255 0.49,11.02 V 14.252 H 16.332 c -4.434,0 -7.426,-0.217 -8.957,-0.637 C 5.857,13.191 4.422,11.912 3.074,9.763 1.748,7.635 0.719,4.374 0,0"
             style="fill:#49176d;fill-opacity:1;fill-rule:nonzero;stroke:none"
             id="path72" />
        </g>
        <g
           id="g74"
           transform="translate(1107.2793,91.6255)">
          <path
             d="m 0,0 13.586,22.842 c 2.236,3.731 3.353,6.375 3.353,7.937 0,1.428 -0.589,2.727 -1.777,3.916 -1.187,1.191 -3.303,1.788 -6.365,1.788 v 2.341 H 31.346 V 36.483 C 28.221,36.04 25.699,34.876 23.787,32.991 21.875,31.106 19.424,27.686 16.432,22.746 L 0.965,-3.063 v -9.149 c 0,-5.869 0.183,-9.603 0.533,-11.218 0.356,-1.613 1.125,-2.753 2.287,-3.417 1.176,-0.647 3.469,-0.991 6.904,-0.991 v -2.337 h -29.414 v 2.337 h 1.123 c 2.948,0 4.993,0.382 6.129,1.128 1.131,0.746 1.856,1.909 2.16,3.478 0.313,1.582 0.458,5.255 0.458,11.02 v 8.492 l -17.194,28.241 c -3.494,5.706 -5.818,9.094 -6.969,10.201 -1.156,1.105 -3.212,1.691 -6.211,1.761 v 2.341 h 27.979 v -2.341 c -5.24,0 -7.857,-1.196 -7.857,-3.576 0,-0.951 0.865,-2.849 2.599,-5.71 z"
             style="fill:#49176d;fill-opacity:1;fill-rule:nonzero;stroke:none"
             id="path76" />
        </g>
        <g
           id="g78"
           transform="translate(85.6602,27.709)">
          <path
             d="m 0,0 c 8.927,0 16.527,1.391 22.906,3.863 2.053,0.848 3.793,1.867 4.873,3.157 2.919,3.48 2.818,10.296 0.195,16.412 -0.588,1.372 -2.869,6.642 -5.978,13.711 -2.141,4.869 -6.018,4.891 -10.779,4.891 h -31.858 c -4.808,0 -8.092,-1.687 -10.343,-7.238 -2.919,-7.187 -4.834,-11.478 -5.441,-13.206 -1.651,-4.713 -2.039,-8.889 0.439,-10.881 C -33.511,8.715 -23.75,0 0,0"
             style="fill:#49176d;fill-opacity:1;fill-rule:nonzero;stroke:none"
             id="path80" />
        </g>
        <g
           id="g82"
           transform="translate(135.9268,74.8784)">
          <path
             d="m 0,0 v 80.826 h -44.471 l 42.444,-96.09 C -0.659,-10.411 0,-5.259 0,0"
             style="fill:#49176d;fill-opacity:1;fill-rule:nonzero;stroke:none"
             id="path84" />
        </g>
        <g
           id="g86"
           transform="translate(35.3945,155.7041)">
          <path
             d="m 0,0 v -80.826 c 0,-7.45 1.17,-14.678 3.813,-21.158 L 49.293,0 Z"
             style="fill:#49176d;fill-opacity:1;fill-rule:nonzero;stroke:none"
             id="path88" />
        </g>
        <g
           id="g90"
           transform="translate(83.084,121.1753)">
          <path
             d="m 0,0 c -1.601,3.643 -2.912,3.206 -4.735,-1.238 -0.702,-1.719 -6.552,-16.305 -14.057,-34.026 -0.578,-1.359 -2.283,-6.066 1.065,-6.066 h 32.735 c 1.894,0 2.336,1.557 0.875,4.904 C 8.306,-19.087 1.131,-2.566 0,0"
             style="fill:#49176d;fill-opacity:1;fill-rule:nonzero;stroke:none"
             id="path92" />
        </g>
        <g
           id="g94"
           transform="translate(154.0391,146.853)">
          <path
             d="M 0,0 H 2.021 C 3.727,0 5.293,0.085 5.293,2.048 5.293,3.7 3.87,3.956 2.562,3.956 H 0 Z m -1.936,5.521 h 4.81 c 2.96,0 4.356,-1.167 4.356,-3.557 0,-2.248 -1.424,-3.189 -3.274,-3.387 L 7.513,-6.916 H 5.436 L 2.05,-1.566 H 0 v -5.35 H -1.936 Z M 2.22,-9.79 c 4.925,0 8.737,3.927 8.737,9.136 0,5.094 -3.812,9.021 -8.737,9.021 -4.982,0 -8.794,-3.927 -8.794,-9.021 0,-5.209 3.812,-9.136 8.794,-9.136 m 0,19.723 c 5.805,0 10.673,-4.583 10.673,-10.587 0,-6.12 -4.868,-10.701 -10.673,-10.701 -5.834,0 -10.73,4.581 -10.73,10.701 0,6.004 4.896,10.587 10.73,10.587"
             style="fill:#49176d;fill-opacity:1;fill-rule:nonzero;stroke:none"
             id="path96" />
        </g>
      </g>
    </g>
  </g>
</svg>
